<svg xmlns="http://www.w3.org/2000/svg" xmlns:xlink="http://www.w3.org/1999/xlink" width="500" zoomAndPan="magnify" viewBox="0 0 375 374.999991" height="500" preserveAspectRatio="xMidYMid meet" version="1.0"><defs><g/><clipPath id="4398bce596"><path d="M 69.320312 111.628906 L 139.820312 111.628906 L 139.820312 234.628906 L 69.320312 234.628906 Z M 69.320312 111.628906 " clip-rule="nonzero"/></clipPath><clipPath id="8e1b78da03"><rect x="0" width="158" y="0" height="143"/></clipPath></defs><rect x="-37.5" width="450" fill="#ffffff" y="-37.499999" height="449.999989" fill-opacity="1"/><rect x="-37.5" width="450" fill="#ffffff" y="-37.499999" height="449.999989" fill-opacity="1"/><g clip-path="url(#4398bce596)"><path fill="#18cb96" d="M 196.464844 180.914062 L 151.046875 180.914062 L 181.75 211.617188 L 171.609375 221.757812 L 140.320312 190.472656 L 140.320312 234.898438 L 125.988281 234.898438 L 125.988281 191.003906 L 93.402344 223.589844 L 82.601562 212.789062 L 114.472656 180.914062 L 69.382812 180.914062 L 69.382812 165.613281 L 115.488281 165.613281 L 84.457031 134.582031 L 94.597656 124.441406 L 125.988281 155.855469 L 125.988281 111.628906 L 140.320312 111.628906 L 140.320312 155.042969 L 172.449219 122.914062 L 183.25 133.742188 L 151.378906 165.613281 L 196.464844 165.613281 Z M 196.464844 180.914062 " fill-opacity="1" fill-rule="nonzero"/></g><g transform="matrix(1, 0, 0, 1, 146, 113)"><g clip-path="url(#8e1b78da03)"><g fill="#000000" fill-opacity="1"><g transform="translate(3.191767, 58.615552)"><g><path d="M 1.875 -31.46875 L 1.875 -43.484375 L 17.0625 -53.296875 L 22.8125 -53.296875 L 22.8125 0 L 10.65625 0 L 10.65625 -37.15625 Z M 1.875 -31.46875 "/></g></g></g><g fill="#000000" fill-opacity="1"><g transform="translate(27.420337, 58.615552)"><g><path d="M 35.984375 -21.90625 L 42.1875 -21.90625 L 42.1875 -11.234375 L 35.984375 -11.234375 L 35.984375 0 L 24.609375 0 L 24.609375 -11.234375 L -1.609375 -11.234375 L -1.609375 -14.859375 L 23.96875 -53.296875 L 35.984375 -53.296875 Z M 24.609375 -37.078125 L 24.484375 -37.078125 L 14.984375 -21.90625 L 24.609375 -21.90625 Z M 24.609375 -37.078125 "/></g></g></g><g fill="#000000" fill-opacity="1"><g transform="translate(67.995193, 58.615552)"><g><path d="M 1.8125 -26.625 C 1.8125 -35.40625 3.898438 -42.207031 8.078125 -47.03125 C 12.253906 -51.851562 17.398438 -54.265625 23.515625 -54.265625 C 29.628906 -54.265625 34.765625 -51.851562 38.921875 -47.03125 C 43.078125 -42.207031 45.15625 -35.40625 45.15625 -26.625 C 45.15625 -21.84375 44.570312 -17.640625 43.40625 -14.015625 C 42.25 -10.398438 40.644531 -7.523438 38.59375 -5.390625 C 36.550781 -3.265625 34.269531 -1.671875 31.75 -0.609375 C 29.226562 0.441406 26.484375 0.96875 23.515625 0.96875 C 20.546875 0.96875 17.800781 0.441406 15.28125 -0.609375 C 12.757812 -1.671875 10.460938 -3.265625 8.390625 -5.390625 C 6.328125 -7.523438 4.710938 -10.398438 3.546875 -14.015625 C 2.390625 -17.640625 1.8125 -21.84375 1.8125 -26.625 Z M 14.078125 -26.625 C 14.078125 -20.976562 14.894531 -16.742188 16.53125 -13.921875 C 18.175781 -11.097656 20.503906 -9.6875 23.515625 -9.6875 C 26.484375 -9.6875 28.785156 -11.097656 30.421875 -13.921875 C 32.066406 -16.742188 32.890625 -20.976562 32.890625 -26.625 C 32.890625 -32 32.054688 -36.171875 30.390625 -39.140625 C 28.734375 -42.117188 26.441406 -43.609375 23.515625 -43.609375 C 20.585938 -43.609375 18.28125 -42.109375 16.59375 -39.109375 C 14.914062 -36.117188 14.078125 -31.957031 14.078125 -26.625 Z M 14.078125 -26.625 "/></g></g></g><g fill="#000000" fill-opacity="1"><g transform="translate(3.191767, 119.545819)"><g><path d="M 30.953125 -53.296875 L 52.46875 0 L 39.40625 0 L 35.46875 -10.65625 L 15.1875 -10.65625 L 11.234375 0 L -1.8125 0 L 19.703125 -53.296875 Z M 31.328125 -21.328125 L 25.390625 -36.828125 L 25.265625 -36.828125 L 19.3125 -21.328125 Z M 31.328125 -21.328125 "/></g></g></g><g fill="#000000" fill-opacity="1"><g transform="translate(51.390583, 119.545819)"><g><path d="M 14.671875 -33.140625 L 14.671875 -17.375 C 14.671875 -14.101562 15.164062 -11.773438 16.15625 -10.390625 C 17.144531 -9.015625 18.820312 -8.328125 21.1875 -8.328125 C 23.5625 -8.328125 25.242188 -9.015625 26.234375 -10.390625 C 27.222656 -11.773438 27.71875 -14.101562 27.71875 -17.375 L 27.71875 -33.140625 L 39.15625 -33.140625 L 39.15625 -14.609375 C 39.15625 -9.085938 37.722656 -5.109375 34.859375 -2.671875 C 31.992188 -0.242188 27.4375 0.96875 21.1875 0.96875 C 14.945312 0.96875 10.394531 -0.242188 7.53125 -2.671875 C 4.664062 -5.109375 3.234375 -9.085938 3.234375 -14.609375 L 3.234375 -33.140625 Z M 14.671875 -33.140625 "/></g></g></g><g fill="#000000" fill-opacity="1"><g transform="translate(91.319346, 119.545819)"><g><path d="M 5.8125 -33.140625 L 5.8125 -45.484375 L 17.25 -45.484375 L 17.25 -33.140625 L 24.234375 -33.140625 L 24.234375 -24.421875 L 17.25 -24.421875 L 17.25 -13.890625 C 17.25 -10.828125 18.109375 -9.296875 19.828125 -9.296875 C 20.265625 -9.296875 20.71875 -9.382812 21.1875 -9.5625 C 21.664062 -9.738281 22.035156 -9.910156 22.296875 -10.078125 L 22.671875 -10.34375 L 25.515625 -1.09375 C 23.066406 0.277344 20.269531 0.96875 17.125 0.96875 C 14.96875 0.96875 13.113281 0.59375 11.5625 -0.15625 C 10.007812 -0.914062 8.832031 -1.929688 8.03125 -3.203125 C 7.238281 -4.472656 6.671875 -5.804688 6.328125 -7.203125 C 5.984375 -8.597656 5.8125 -10.09375 5.8125 -11.6875 L 5.8125 -24.421875 L 1.03125 -24.421875 L 1.03125 -33.140625 Z M 5.8125 -33.140625 "/></g></g></g><g fill="#000000" fill-opacity="1"><g transform="translate(114.384947, 119.545819)"><g><path d="M 7 -3.9375 C 3.320312 -7.207031 1.484375 -11.40625 1.484375 -16.53125 C 1.484375 -21.664062 3.398438 -25.878906 7.234375 -29.171875 C 11.066406 -32.460938 15.804688 -34.109375 21.453125 -34.109375 C 27.003906 -34.109375 31.6875 -32.445312 35.5 -29.125 C 39.3125 -25.8125 41.21875 -21.613281 41.21875 -16.53125 C 41.21875 -11.457031 39.351562 -7.269531 35.625 -3.96875 C 31.90625 -0.675781 27.179688 0.96875 21.453125 0.96875 C 15.503906 0.96875 10.6875 -0.664062 7 -3.9375 Z M 15.859375 -22.15625 C 14.367188 -20.695312 13.625 -18.820312 13.625 -16.53125 C 13.625 -14.25 14.332031 -12.382812 15.75 -10.9375 C 17.175781 -9.5 19.054688 -8.78125 21.390625 -8.78125 C 23.628906 -8.78125 25.46875 -9.515625 26.90625 -10.984375 C 28.351562 -12.453125 29.078125 -14.304688 29.078125 -16.546875 C 29.078125 -18.828125 28.332031 -20.695312 26.84375 -22.15625 C 25.351562 -23.625 23.535156 -24.359375 21.390625 -24.359375 C 19.191406 -24.359375 17.347656 -23.625 15.859375 -22.15625 Z M 15.859375 -22.15625 "/></g></g></g></g></g></svg>